<svg width="150" height="150" viewBox="0 0 150 150" fill="none" xmlns="http://www.w3.org/2000/svg">
<path d="M127.5 63.2344C124.031 65.5312 120.047 67.3828 115.898 68.8594C104.883 72.7969 90.4219 75 75 75C59.5781 75 45.0938 72.7734 34.1016 68.8594C29.9766 67.3828 25.9688 65.5312 22.5 63.2344V82.5C22.5 92.8594 46.0078 101.25 75 101.25C103.992 101.25 127.5 92.8594 127.5 82.5V63.2344ZM127.5 45V33.75C127.5 23.3906 103.992 15 75 15C46.0078 15 22.5 23.3906 22.5 33.75V45C22.5 55.3594 46.0078 63.75 75 63.75C103.992 63.75 127.5 55.3594 127.5 45ZM115.898 106.359C104.906 110.273 90.4453 112.5 75 112.5C59.5547 112.5 45.0938 110.273 34.1016 106.359C29.9766 104.883 25.9688 103.031 22.5 100.734V116.25C22.5 126.609 46.0078 135 75 135C103.992 135 127.5 126.609 127.5 116.25V100.734C124.031 103.031 120.047 104.883 115.898 106.359Z" fill="white"/>
</svg>
