<svg width="150" height="150" viewBox="0 0 150 150" fill="none" xmlns="http://www.w3.org/2000/svg">
<path d="M26.4375 22.5H123.562C125.742 22.5 127.5 24.2578 127.5 26.4375V123.562C127.5 125.742 125.742 127.5 123.562 127.5H26.4375C24.2578 127.5 22.5 125.742 22.5 123.562V26.4375C22.5 24.2578 24.2578 22.5 26.4375 22.5ZM80.8594 78.3516V69.75H43.5V78.3516H56.8359V116.695H67.4531V78.3516H80.8594ZM85.1016 115.688C86.8125 116.555 88.8281 117.211 91.1719 117.656C93.5156 118.102 95.9766 118.312 98.5547 118.312C101.086 118.312 103.477 118.078 105.75 117.586C108.023 117.094 110.016 116.32 111.727 115.219C113.438 114.117 114.797 112.664 115.805 110.906C116.812 109.148 117.305 106.922 117.305 104.297C117.305 102.398 117.023 100.734 116.438 99.3047C115.852 97.875 115.055 96.6094 113.977 95.4844C112.898 94.3594 111.609 93.375 110.109 92.4844C108.609 91.5938 106.898 90.7734 105.023 89.9766C103.641 89.4141 102.398 88.8516 101.297 88.3125C100.195 87.7734 99.2578 87.2344 98.5078 86.6719C97.7578 86.1094 97.1484 85.5234 96.7266 84.9141C96.3047 84.3047 96.0938 83.5781 96.0938 82.8047C96.0938 82.0781 96.2812 81.4453 96.6562 80.8594C97.0312 80.2734 97.5469 79.7812 98.2266 79.3594C98.9062 78.9375 99.75 78.6328 100.734 78.3984C101.719 78.1641 102.82 78.0469 104.039 78.0469C104.906 78.0469 105.844 78.1172 106.828 78.2344C107.812 78.3516 108.797 78.5625 109.781 78.8438C110.766 79.125 111.727 79.4531 112.664 79.875C113.602 80.2969 114.469 80.7656 115.242 81.3047V71.5078C113.648 70.8984 111.891 70.4531 109.992 70.1484C108.094 69.8437 105.914 69.7031 103.453 69.7031C100.945 69.7031 98.5781 69.9609 96.3281 70.5C94.0781 71.0391 92.1094 71.8594 90.4219 73.0078C88.7344 74.1562 87.375 75.5859 86.3906 77.3438C85.4062 79.1016 84.9141 81.2109 84.9141 83.6484C84.9141 86.7656 85.8281 89.4375 87.6328 91.6406C89.4375 93.8438 92.2031 95.7188 95.8828 97.2422C97.3359 97.8281 98.6719 98.4141 99.9375 98.9766C101.203 99.5391 102.281 100.125 103.172 100.734C104.062 101.344 104.812 102 105.328 102.727C105.844 103.453 106.125 104.273 106.125 105.188C106.125 105.867 105.961 106.5 105.633 107.062C105.305 107.625 104.812 108.141 104.133 108.562C103.453 108.984 102.633 109.312 101.625 109.57C100.617 109.828 99.4453 109.922 98.1094 109.922C95.8359 109.922 93.5625 109.523 91.3359 108.727C89.1094 107.93 87.0234 106.734 85.1016 105.141V115.617V115.688Z" fill="#377CC8"/>
</svg>
